<?xml version="1.0" standalone="no"?>
<!DOCTYPE svg PUBLIC "-//W3C//DTD SVG 20010904//EN"
 "http://www.w3.org/TR/2001/REC-SVG-20010904/DTD/svg10.dtd">
<svg version="1.0" xmlns="http://www.w3.org/2000/svg"
 width="7228.000000pt" height="1502.000000pt" viewBox="0 0 7228.000000 1502.000000"
 preserveAspectRatio="xMidYMid meet">

<g transform="translate(0.000000,1502.000000) scale(0.100000,-0.100000)"
fill="#000000" stroke="none">
<path d="M13435 15000 c-1211 -105 -2281 -664 -3011 -1573 -488 -608 -777
-1337 -844 -2125 -18 -202 -8 -632 19 -827 145 -1062 679 -1990 1529 -2652
1140 -890 2711 -1143 4123 -664 781 265 1451 732 1956 1364 452 565 736 1233
834 1961 26 197 36 608 20 808 -66 788 -356 1512 -857 2138 -127 158 -424 460
-574 582 -672 547 -1438 869 -2320 974 -157 19 -716 27 -875 14z m795 -714
c443 -56 802 -165 1190 -362 717 -363 1277 -968 1579 -1702 152 -370 225 -722
238 -1142 24 -786 -229 -1543 -723 -2165 -116 -146 -401 -428 -544 -539 -440
-341 -921 -563 -1455 -671 -542 -110 -1152 -88 -1665 60 -204 59 -370 124
-575 225 -546 269 -991 662 -1320 1165 -283 432 -450 893 -521 1431 -22 163
-25 598 -6 759 66 548 242 1033 537 1475 123 185 241 327 410 495 494 495
1103 813 1795 939 117 21 189 30 395 50 87 9 557 -4 665 -18z"/>
<path d="M67635 14999 c-1062 -97 -2000 -527 -2710 -1243 -991 -1000 -1373
-2402 -1025 -3761 236 -921 798 -1726 1600 -2295 221 -157 529 -327 796 -439
865 -363 1867 -439 2794 -210 630 155 1188 431 1698 838 129 104 402 368 521
506 537 621 861 1369 953 2200 20 182 17 655 -6 830 -62 487 -185 895 -396
1310 -444 876 -1222 1579 -2165 1955 -372 148 -752 244 -1175 296 -158 19
-726 28 -885 13z m775 -709 c685 -84 1282 -329 1795 -736 131 -104 357 -324
463 -449 434 -515 687 -1105 763 -1775 21 -183 16 -572 -10 -764 -150 -1114
-814 -2047 -1820 -2555 -452 -228 -886 -342 -1415 -371 -968 -53 -1910 304
-2587 980 -528 527 -854 1188 -954 1935 -23 167 -31 529 -16 706 135 1595
1385 2859 2996 3028 55 6 118 13 140 15 73 7 558 -3 645 -14z"/>
<path d="M0 10975 l0 -3865 1728 0 c1037 0 1793 4 1892 10 770 47 1353 212
1880 531 285 173 642 461 831 670 537 594 853 1303 966 2164 26 202 26 788 0
990 -101 775 -362 1411 -808 1975 -165 210 -462 482 -731 672 -549 389 -1153
606 -1898 683 -292 29 -617 35 -2237 35 l-1623 0 0 -3865z m3705 3127 c512
-65 767 -134 1100 -297 242 -119 451 -261 690 -469 465 -406 814 -1030 944
-1692 48 -242 55 -334 55 -669 0 -346 -11 -457 -70 -724 -102 -456 -298 -885
-568 -1245 -209 -278 -419 -470 -760 -697 -358 -237 -732 -376 -1184 -439
-302 -42 -336 -43 -1744 -47 l-1368 -4 0 3151 0 3151 1408 -4 c969 -3 1435 -8
1497 -15z"/>
<path d="M19823 14827 c3 -8 812 -1747 1798 -3865 l1793 -3852 392 0 391 0 10
22 c112 236 3576 7678 3580 7691 5 16 -18 17 -428 15 l-433 -3 -1530 -3367
-1530 -3368 -36 0 -37 0 -1536 3368 -1536 3367 -451 3 c-375 2 -451 0 -447
-11z"/>
<path d="M30347 14833 c-4 -3 -7 -1743 -7 -3865 l0 -3858 400 0 400 0 0 3865
0 3865 -393 0 c-217 0 -397 -3 -400 -7z"/>
<path d="M34757 14833 c-4 -3 -7 -1743 -7 -3865 l0 -3858 2885 0 2885 0 0 355
0 355 -2485 0 -2485 0 0 3510 0 3510 -393 0 c-217 0 -397 -3 -400 -7z"/>
<path d="M42880 10975 l0 -3865 3210 0 3210 0 0 355 0 355 -2810 0 -2810 0 0
1515 0 1515 1625 0 1625 0 -2 348 -3 347 -1622 3 -1623 2 0 1285 0 1285 2680
0 2680 0 0 360 0 360 -3080 0 -3080 0 0 -3865z"/>
<path d="M55217 14833 c-4 -3 -7 -1743 -7 -3865 l0 -3858 400 0 400 0 0 1089
0 1089 1040 1029 c572 565 1044 1029 1048 1030 4 1 721 -952 1594 -2118 l1587
-2119 511 0 511 0 -59 78 c-32 42 -849 1120 -1815 2394 l-1757 2318 228 223
c125 123 800 782 1500 1466 699 683 1272 1244 1272 1246 0 3 -217 5 -482 5
l-483 0 -2345 -2328 -2345 -2327 -5 2325 -5 2325 -391 3 c-215 1 -393 -1 -397
-5z"/>
<path d="M20376 1043 c-242 -522 -443 -956 -448 -966 -8 -16 0 -17 128 -15
l136 3 128 285 128 285 481 0 482 0 131 -287 131 -288 142 0 143 0 -447 963
-447 962 -124 3 -125 3 -439 -948z m741 245 c100 -222 185 -411 189 -420 6
-17 -16 -18 -375 -18 -210 0 -381 3 -381 7 0 14 374 833 380 833 3 0 87 -181
187 -402z"/>
<path d="M22850 1025 l0 -965 130 0 130 0 0 390 0 390 393 0 393 0 219 -390
220 -390 148 0 148 0 -12 22 c-7 13 -108 187 -224 388 -117 201 -217 375 -223
386 -11 20 -7 23 51 44 92 33 165 81 235 154 168 175 195 435 67 651 -71 121
-205 217 -365 261 -59 17 -124 19 -687 22 l-623 3 0 -966z m1196 724 c83 -15
157 -54 210 -111 65 -70 88 -126 88 -218 0 -134 -67 -239 -196 -307 l-53 -28
-492 -3 -493 -3 0 341 0 340 438 0 c275 0 460 -4 498 -11z"/>
<path d="M25360 1875 l0 -115 375 0 375 0 0 -850 0 -850 130 0 130 0 0 850 0
850 375 0 375 0 0 115 0 115 -880 0 -880 0 0 -115z"/>
<path d="M30140 1327 c0 -555 -2 -672 -15 -720 -58 -224 -233 -352 -499 -364
-255 -12 -438 83 -551 285 -22 39 -43 72 -48 72 -8 0 -172 -82 -196 -98 -31
-22 111 -230 216 -317 83 -69 157 -107 268 -141 127 -38 346 -45 485 -16 301
62 497 235 577 507 16 54 18 128 21 758 l3 697 -131 0 -130 0 0 -663z"/>
<path d="M31520 1025 l0 -965 810 0 810 0 0 115 0 115 -680 0 -680 0 0 335 0
335 390 0 390 0 0 115 0 115 -390 0 -390 0 0 285 0 285 645 0 645 0 0 115 0
115 -775 0 -775 0 0 -965z"/>
<path d="M33961 1653 c60 -186 200 -620 311 -966 l202 -628 134 3 134 3 232
720 c128 396 236 719 241 718 5 -1 113 -325 240 -720 l232 -718 134 -3 134 -3
308 958 c169 527 307 962 307 966 0 4 -60 6 -132 5 l-133 -3 -237 -764 c-130
-419 -239 -766 -242 -769 -3 -3 -8 -3 -11 -1 -2 3 -84 252 -180 555 -97 302
-207 647 -246 767 l-70 217 -99 0 -99 0 -55 -172 c-315 -987 -436 -1361 -441
-1366 -3 -3 -7 -3 -9 -1 -3 3 -458 1465 -473 1522 -5 15 -21 17 -148 17 l-142
0 108 -337z"/>
<path d="M37500 1025 l0 -965 815 0 815 0 0 115 0 115 -680 0 -680 0 0 335 0
335 390 0 390 0 0 115 0 115 -390 0 -390 0 0 285 0 285 645 0 645 0 0 115 0
115 -780 0 -780 0 0 -965z"/>
<path d="M40070 1025 l0 -965 740 0 741 0 -3 113 -3 112 -607 3 -608 2 0 850
0 850 -130 0 -130 0 0 -965z"/>
<path d="M42400 1025 l0 -965 740 0 740 0 0 115 0 115 -605 0 -605 0 0 850 0
850 -135 0 -135 0 0 -965z"/>
<path d="M44740 1025 l0 -965 815 0 815 0 0 115 0 115 -680 0 -680 0 0 335 0
335 390 0 390 0 0 115 0 115 -390 0 -390 0 0 285 0 285 645 0 645 0 0 115 0
115 -780 0 -780 0 0 -965z"/>
<path d="M47310 1025 l0 -965 130 0 130 0 0 390 0 390 393 0 392 -1 219 -389
219 -390 149 0 150 0 -20 33 c-79 131 -453 780 -450 782 2 1 31 14 66 28 188
75 323 220 361 387 15 65 13 206 -4 270 -46 174 -175 314 -350 379 -129 49
-168 51 -796 51 l-589 0 0 -965z m1195 724 c179 -33 297 -167 297 -336 0 -63
-5 -84 -31 -137 -37 -75 -92 -128 -170 -165 l-56 -26 -487 -3 -488 -3 0 341 0
340 438 0 c274 0 460 -4 497 -11z"/>
<path d="M49858 1913 c33 -43 211 -274 396 -513 l336 -435 0 -452 0 -453 130
0 130 0 0 450 0 451 388 502 c213 276 391 508 396 515 6 9 -26 12 -146 11
l-153 0 -299 -395 c-165 -217 -302 -394 -305 -393 -3 0 -140 178 -304 395
l-298 394 -165 0 -165 0 59 -77z"/>
<path d="M55535 1228 c-4 -9 -5 -37 -3 -64 l3 -49 8343 -3 8342 -2 0 60 0 60
-5023 0 c-2763 0 -6516 3 -8340 7 -2984 6 -3317 5 -3322 -9z"/>
<path d="M27 1173 c-4 -3 -7 -30 -7 -58 l0 -52 5333 -6 c2932 -4 6688 -7 8345
-7 l3012 0 0 58 0 59 -1342 6 c-1752 9 -15333 9 -15341 0z"/>
</g>
</svg>
